<?xml version="1.0" encoding="UTF-8" standalone="no"?>
<svg width="41px" height="41px" viewBox="0 0 41 41" version="1.1" xmlns="http://www.w3.org/2000/svg" xmlns:xlink="http://www.w3.org/1999/xlink" xmlns:sketch="http://www.bohemiancoding.com/sketch/ns">
    <!-- Generator: Sketch 3.2 (9961) - http://www.bohemiancoding.com/sketch -->
    <title>linkedin</title>
    <desc>Created with Sketch.</desc>
    <defs></defs>
    <g id="Page-1" stroke="none" stroke-width="1" fill="none" fill-rule="evenodd" sketch:type="MSPage">
        <g id="gradientbg" sketch:type="MSArtboardGroup" transform="translate(-410.000000, -484.000000)" fill="#FFFFFF">
            <g id="dribbble-+-twitter-+-linkedin" sketch:type="MSLayerGroup" transform="translate(410.000000, 484.000000)">
                <g id="linkedin" sketch:type="MSShapeGroup">
                    <path d="M20.2021773,1 C9.62111536,1 1.01308564,9.7475 1.01308564,20.5 C1.01308564,31.25 9.62111536,40 20.2021773,40 C30.7832393,40 39.391269,31.25 39.391269,20.5 C39.391269,9.7475 30.7832393,1 20.2021773,1 L20.2021773,1 Z M20.2021773,41 C9.07890051,41 0.0290296515,31.805 0.0290296515,20.5 C0.0290296515,9.196 9.07890051,0 20.2021773,0 C31.3259462,0 40.375325,9.196 40.375325,20.5 C40.375325,31.805 31.3259462,41 20.2021773,41 L20.2021773,41 Z" id="Fill-37"></path>
                    <path d="M29.0296515,27.955 L25.1136008,27.955 L25.1136008,22.135 C25.1136008,20.615 24.502502,19.5775 23.1558214,19.5775 C22.1260068,19.5775 21.5537782,20.2775 21.286607,20.955 C21.1852493,21.195 21.2019782,21.535 21.2019782,21.87 L21.2019782,27.955 L17.3233215,27.955 C17.3233215,27.955 17.3749845,17.6525 17.3233215,16.716 L21.2019782,16.716 L21.2019782,18.4785 C21.4312633,17.7085 22.6701897,16.608 24.6476502,16.608 C27.1013938,16.608 29.0296515,18.224 29.0296515,21.705 L29.0296515,27.955 L29.0296515,27.955 Z M13.4008744,15.3105 L13.375781,15.3105 C12.1270139,15.3105 11.3166438,14.45 11.3166438,13.3615 C11.3166438,12.2535 12.1501392,11.4115 13.4259678,11.4115 C14.6983522,11.4115 15.4816608,12.2515 15.5072462,13.359 C15.5072462,14.448 14.6983522,15.3105 13.4008744,15.3105 L13.4008744,15.3105 Z M11.7619292,16.716 L15.2164577,16.716 L15.2164577,27.955 L11.7619292,27.955 L11.7619292,16.716 Z" id="Fill-38"></path>
                </g>
            </g>
        </g>
    </g>
</svg>