<?xml version="1.0" encoding="UTF-8"?>
<svg width="41px" height="41px" viewBox="0 0 41 41" version="1.1" xmlns="http://www.w3.org/2000/svg" xmlns:xlink="http://www.w3.org/1999/xlink">
    <title>dribbble</title>
    <g id="Page-1" stroke="none" stroke-width="1" fill="none" fill-rule="evenodd">
        <g id="dribbble" fill-rule="nonzero">
            <path d="M20.2021773,1.27791566 C9.62111536,1.27791566 1.01308564,9.92051807 1.01308564,20.5424819 C1.01308564,31.1659277 9.62111536,39.8080361 20.2021773,39.8080361 C30.7832393,39.8080361 39.391269,31.1659277 39.391269,20.5424819 C39.391269,9.92051807 30.7832393,1.27791566 20.2021773,1.27791566 L20.2021773,1.27791566 L20.2021773,1.27791566 Z M20.2021773,40.795988 C9.07890051,40.795988 0.0290296515,31.7102892 0.0290296515,20.5424819 C0.0290296515,9.37516867 9.07890051,0.289963855 20.2021773,0.289963855 C31.3259462,0.289963855 40.375325,9.37516867 40.375325,20.5424819 C40.375325,31.7102892 31.3259462,40.795988 20.2021773,40.795988 L20.2021773,40.795988 L20.2021773,40.795988 Z" id="Fill-12" fill="#FFFFFF"></path>
            <path d="M24.4247616,26.8411687 C24.3484972,26.382759 23.9445422,24.1539398 22.9550739,21.4168193 C25.3940567,21.0246024 27.5073169,21.6973976 27.6632898,21.7487711 C27.3282187,23.8644699 26.1222581,25.6892169 24.4247616,26.8411687 L24.4247616,26.8411687 L24.4247616,26.8411687 Z M20.2021773,28.1368675 C18.3733093,28.1368675 16.6954938,27.4833373 15.3876834,26.3965904 C15.4870731,26.4776024 15.5579251,26.5294699 15.5579251,26.5294699 C15.5579251,26.5294699 17.0049794,23.3546867 21.4883385,21.7858193 C21.5055595,21.7798916 21.5222884,21.7744578 21.5380333,21.7695181 C22.6017979,24.5461566 23.0416709,26.8708072 23.1518851,27.5352048 C22.2465536,27.921988 21.2482288,28.1368675 20.2021773,28.1368675 L20.2021773,28.1368675 L20.2021773,28.1368675 Z M12.6436433,20.5424819 C12.6436433,20.4614699 12.6470875,20.3824337 12.6495477,20.3033976 C12.7828872,20.3053735 16.5183638,20.3908313 20.4098131,19.2206024 C20.6258134,19.6464096 20.8329572,20.0796265 21.02288,20.5118554 C20.9210302,20.5395181 20.8241007,20.5696506 20.7252031,20.602747 C16.6467831,21.9270964 14.5778054,25.6136386 14.5778054,25.6136386 C14.5778054,25.6136386 14.5802655,25.6161084 14.5802655,25.6170964 C13.376765,24.272 12.6436433,22.4931928 12.6436433,20.5424819 L12.6436433,20.5424819 L12.6436433,20.5424819 Z M16.9769338,13.6762169 C17.0777996,13.8105783 18.4751591,15.7148554 19.7834615,18.0508675 C16.1547551,19.0195542 13.0038078,18.9815181 12.8060126,18.9775663 C13.2975485,16.625747 14.8685939,14.6760241 16.9769338,13.6762169 L16.9769338,13.6762169 L16.9769338,13.6762169 Z M25.1942933,14.8444699 C25.1751042,14.8741084 24.099039,16.5200361 21.2452767,17.5944337 C19.9537032,15.2090241 18.5337104,13.3141325 18.420544,13.1639639 C18.9917885,13.0256506 19.5891105,12.9495783 20.2021773,12.9495783 C22.1146901,12.9495783 23.8618815,13.6668313 25.1942933,14.8444699 L25.1942933,14.8444699 L25.1942933,14.8444699 Z M27.7577592,20.4673976 C27.6475449,20.4431928 25.0904754,19.8899398 22.4925676,20.2184337 C22.4404127,20.0885181 22.3867816,19.9576145 22.3306904,19.8267108 C22.1727494,19.455241 22.0034918,19.0872289 21.8283298,18.7246506 C24.8114956,17.5005783 26.0228685,15.7405422 26.0366453,15.7202892 C27.0994257,17.0130241 27.7385701,18.6653735 27.7577592,20.4673976 L27.7577592,20.4673976 L27.7577592,20.4673976 Z M28.8702345,18.7528072 C28.7550999,18.1822651 28.579938,17.6191325 28.3540971,17.0821807 C28.1326845,16.5541205 27.859609,16.0463133 27.5402828,15.5716024 C27.2234168,15.1008434 26.858824,14.6587349 26.4597893,14.2566386 C26.0587865,13.8535542 25.6198976,13.488506 25.1500108,13.1713735 C24.678156,12.8488072 24.1708751,12.5741566 23.6483414,12.3508795 C23.113507,12.1251325 22.552103,11.9482892 21.9838107,11.8331928 C21.4017416,11.7126627 20.8014674,11.6514096 20.2021773,11.6514096 C19.6028872,11.6514096 19.0031051,11.7126627 18.4195599,11.8331928 C17.8507756,11.9482892 17.2908477,12.1251325 16.7560133,12.3508795 C16.2334795,12.5741566 15.7261987,12.8488072 15.2528678,13.1713735 C14.782981,13.488506 14.3450761,13.8535542 13.9435813,14.2566386 C13.5435625,14.6587349 13.1809379,15.1008434 12.8640719,15.5716024 C12.5442537,16.0463133 12.26921,16.5541205 12.0477974,17.0821807 C11.8224486,17.6191325 11.6477787,18.1822651 11.531168,18.7528072 C11.4125893,19.3371807 11.3525619,19.9398313 11.3525619,20.5424819 C11.3525619,21.1461205 11.4125893,21.7487711 11.531168,22.3341325 C11.6477787,22.9051687 11.8224486,23.4678072 12.0477974,24.0042651 C12.26921,24.5318313 12.5442537,25.0411205 12.8640719,25.5153373 C13.1809379,25.9865904 13.5435625,26.4277108 13.9435813,26.8307952 C14.3450761,27.2323976 14.782981,27.5974458 15.2528678,27.9150723 C15.7261987,28.2361566 16.2334795,28.5122892 16.7560133,28.7350723 C17.2908477,28.9623012 17.8507756,29.1356867 18.4195599,29.253253 C19.0031051,29.3737831 19.6028872,29.4345422 20.2021773,29.4345422 C20.8014674,29.4345422 21.4017416,29.3737831 21.9838107,29.253253 C22.552103,29.1356867 23.113507,28.9623012 23.6483414,28.7350723 C24.1708751,28.5122892 24.678156,28.2361566 25.1500108,27.9150723 C25.6198976,27.5974458 26.0587865,27.2323976 26.4597893,26.8307952 C26.858824,26.4277108 27.2234168,25.9865904 27.5402828,25.5153373 C27.859609,25.0411205 28.1326845,24.5318313 28.3540971,24.0042651 C28.579938,23.4678072 28.7550999,22.9051687 28.8702345,22.3341325 C28.9917654,21.7487711 29.0517928,21.1461205 29.0517928,20.5424819 C29.0517928,19.9398313 28.9917654,19.3371807 28.8702345,18.7528072 L28.8702345,18.7528072 L28.8702345,18.7528072 Z" id="Fill-13" fill="#EA4C89"></path>
        </g>
    </g>
</svg>