<?xml version="1.0" encoding="UTF-8" standalone="no"?>
<svg width="41px" height="41px" viewBox="0 0 41 41" version="1.1" xmlns="http://www.w3.org/2000/svg" xmlns:xlink="http://www.w3.org/1999/xlink" xmlns:sketch="http://www.bohemiancoding.com/sketch/ns">
    <!-- Generator: Sketch 3.2 (9961) - http://www.bohemiancoding.com/sketch -->
    <title>Fill 186 + Fill-4</title>
    <desc>Created with Sketch.</desc>
    <defs></defs>
    <g id="Page-1" stroke="none" stroke-width="1" fill="none" fill-rule="evenodd" sketch:type="MSPage">
        <g id="twitter" sketch:type="MSLayerGroup" fill="#FFFFFF">
            <g id="Page-1" sketch:type="MSShapeGroup">
                <g id="gradientbg">
                    <g id="dribbble-+-twitter-+-linkedin">
                        <g id="Fill-186-+-Fill-4">
                            <path d="M29.6875,25.5 C29.6875,25.626875 29.6619063,25.746875 29.6251563,25.86125 L23.78125,19.875 L29.6875,15.5 L29.6875,25.5 L29.6875,25.5 Z M12.333625,26.71625 L18.255625,20.70625 L20.5,22.321875 L22.64725,20.69625 L28.666375,26.71625 C28.5725312,26.736875 12.4274688,26.736875 12.333625,26.71625 L12.333625,26.71625 Z M11.3125,25.5 L11.3125,15.5 L17.21875,19.875 L11.3748438,25.86125 C11.3380937,25.746875 11.3125,25.626875 11.3125,25.5 L11.3125,25.5 Z M29.03125,14.25 L20.5,20.5 L11.96875,14.25 L29.03125,14.25 L29.03125,14.25 Z M28.375,13 L12.625,13 C11.1753437,13 10,14.119375 10,15.5 L10,25.5 C10,26.880625 11.1753437,28 12.625,28 L28.375,28 C29.8246563,28 31,26.880625 31,25.5 L31,15.5 C31,14.119375 29.8246563,13 28.375,13 L28.375,13 Z" id="Fill-186"></path>
                            <path d="M20.3348247,0.987951802 C9.75376271,0.987951802 1.14573298,9.63006027 1.14573298,20.2530121 C1.14573298,30.8754699 9.75376271,39.5175783 20.3348247,39.5175783 C30.9153946,39.5175783 39.5229323,30.8754699 39.5229323,20.2530121 C39.5229323,9.63006027 30.9153946,0.987951802 20.3348247,0.987951802 L20.3348247,0.987951802 L20.3348247,0.987951802 Z M20.3348247,40.5055301 C9.21154786,40.5055301 0.161677,31.4203253 0.161677,20.2530121 C0.161677,9.08520482 9.21154786,0 20.3348247,0 C31.4581015,0 40.5069883,9.08520482 40.5069883,20.2530121 C40.5069883,31.4203253 31.4581015,40.5055301 20.3348247,40.5055301 L20.3348247,40.5055301 L20.3348247,40.5055301 Z" id="Fill-4"></path>
                        </g>
                    </g>
                </g>
            </g>
        </g>
    </g>
</svg>