<?xml version="1.0" encoding="UTF-8" standalone="no"?>
<svg width="41px" height="41px" viewBox="0 0 41 41" version="1.1" xmlns="http://www.w3.org/2000/svg" xmlns:xlink="http://www.w3.org/1999/xlink">
    <!-- Generator: Sketch 3.6.1 (26313) - http://www.bohemiancoding.com/sketch -->
    <title>twitter</title>
    <desc>Created with Sketch.</desc>
    <defs></defs>
    <g id="Page-1" stroke="none" stroke-width="1" fill="none" fill-rule="evenodd">
        <g id="Artboard-1" transform="translate(-467.000000, -284.000000)">
            <g id="twitter" transform="translate(467.161677, 284.000000)">
                <path d="M20.2026694,1.48143373 C9.62160739,1.48143373 1.01357766,10.1235422 1.01357766,20.746494 C1.01357766,31.3689518 9.62160739,40.0110602 20.2026694,40.0110602 C30.7832393,40.0110602 39.390777,31.3689518 39.390777,20.746494 C39.390777,10.1235422 30.7832393,1.48143373 20.2026694,1.48143373 L20.2026694,1.48143373 L20.2026694,1.48143373 Z M20.2026694,40.999012 C9.07939254,40.999012 0.0295216795,31.9138072 0.0295216795,20.746494 C0.0295216795,9.57868675 9.07939254,0.493481928 20.2026694,0.493481928 C31.3259462,0.493481928 40.374833,9.57868675 40.374833,20.746494 C40.374833,31.9138072 31.3259462,40.999012 20.2026694,40.999012 L20.2026694,40.999012 L20.2026694,40.999012 Z" id="Fill-4" fill="#FFFFFF"></path>
                <path d="M29.0586812,16.1935181 C28.4067441,16.4834819 27.7060962,16.6795904 26.9714984,16.7675181 C27.7228252,16.3160241 28.29899,15.6017349 28.5691133,14.7501205 C27.8664974,15.1680241 27.0900772,15.4713253 26.260518,15.6338434 C25.5997244,14.924988 24.6540466,14.4823855 23.6084871,14.4823855 C21.602489,14.4823855 19.9753524,16.1159639 19.9753524,18.1303976 C19.9753524,18.4169036 20.0063502,18.6945181 20.0693298,18.9612651 C17.049754,18.8086265 14.3721377,17.3578193 12.5782036,15.149253 C12.2652738,15.6896627 12.0871597,16.3160241 12.0871597,16.9848675 C12.0871597,18.2494458 12.7287642,19.3663253 13.7029796,20.0213373 C13.1086098,20.0030602 12.5472058,19.8375783 12.0561619,19.5658916 L12.0561619,19.6103494 C12.0561619,21.3792771 13.3093572,22.8537952 14.9724118,23.1877229 C14.6678465,23.2731807 14.3475363,23.3161566 14.0149253,23.3161566 C13.78072,23.3161566 13.552911,23.2944217 13.3314984,23.2514458 C13.7940048,24.7007711 15.134781,25.7559036 16.7259996,25.7840602 C15.4816608,26.7631205 13.9140596,27.346012 12.2126268,27.346012 C11.9193781,27.346012 11.6295736,27.3297108 11.3456735,27.2956265 C12.954113,28.330012 14.8641656,28.9341446 16.9154303,28.9341446 C23.6015987,28.9341446 27.2553986,23.3759277 27.2553986,18.5542289 C27.2553986,18.3956627 27.2524464,18.2375904 27.245558,18.081988 C27.9560465,17.5672651 28.5735416,16.9246024 29.0586812,16.1935181" id="Fill-5" fill="#8EC6FF"></path>
            </g>
        </g>
    </g>
</svg>